PathFileType	4	(X/Y/Z)	Walk10.trc
DataRate	CameraRate	NumFrames	NumMarkers	Units	OrigDataRate	OrigDataStartFrame	OrigNumFrames
200.000000	200.000000	8	56	mm	200.000000	446	519
Frame#	Times		RBHD		C7		RASI		RACR1		RUA1		RElbow		RFA1		LFA1		RTH3		RTH2		RTB1		RTB3		RMT1		LTH2		RMT5		RLFC		LElbowM		RTH1		RWRU		RTB2		LElbow		RTB4		RMMAL		LACR1		LTH3		LTH4		LWRU		CLAV		LASI		LTB1		LPSI		RPSI		T10		LLFC		RTH4		LBHD		RCAR		LTB3		LTH1		LTB4		RToe		LWRR		LMT1		RBack		LMMAL		LCAL		LFHD		LTB2		LLMAL		RLMAL		LCAR		LToe		LMT5		RElbowM		LUA1		RCAL
			X1	Y1	Z1	X2	Y2	Z2	X3	Y3	Z3	X4	Y4	Z4	X5	Y5	Z5	X6	Y6	Z6	X7	Y7	Z7	X8	Y8	Z8	X9	Y9	Z9	X10	Y10	Z10	X11	Y11	Z11	X12	Y12	Z12	X13	Y13	Z13	X14	Y14	Z14	X15	Y15	Z15	X16	Y16	Z16	X17	Y17	Z17	X18	Y18	Z18	X19	Y19	Z19	X20	Y20	Z20	X21	Y21	Z21	X22	Y22	Z22	X23	Y23	Z23	X24	Y24	Z24	X25	Y25	Z25	X26	Y26	Z26	X27	Y27	Z27	X28	Y28	Z28	X29	Y29	Z29	X30	Y30	Z30	X31	Y31	Z31	X32	Y32	Z32	X33	Y33	Z33	X34	Y34	Z34	X35	Y35	Z35	X36	Y36	Z36	X37	Y37	Z37	X38	Y38	Z38	X39	Y39	Z39	X40	Y40	Z40	X41	Y41	Z41	X42	Y42	Z42	X43	Y43	Z43	X44	Y44	Z44	X45	Y45	Z45	X46	Y46	Z46	X47	Y47	Z47	X48	Y48	Z48	X49	Y49	Z49	X50	Y50	Z50	X51	Y51	Z51	X52	Y52	Z52	X53	Y53	Z53	X54	Y54	Z54	X55	Y55	Z55	X56	Y56	Z56

446	2.23	959.91	1541.1	456.84	940.02	1416	372.02	1049.1	931	486.24	999.45	1355.2	519.31	917.36	1170.3	584.1	844.33	1056.3	594.77	841.74	911.83	622.7	1057.8	992.93	45.653	1118.4	559.55	514.8	1141.8	675.5	502.55	1192.3	374.58	412.79	1183.9	184.19	413.24	1275.7	37.485	370.24	1035.9	608.66	203.02	1254.1	31.109	459.71	1154.5	463.23	497.84	903.21	1089.3	138.52	1043.9	730.42	545.09	794.1	787.35	610.75	1184.7	278.67	486.23	930.92	1098.1	59.276	1191.2	281.63	414.56	1148.8	94.603	372.01	983.91	1415.9	195.58	956.9	524.95	184.36	965.52	613.95	172.16	1078.1	875.79	52.009	1074.8	1338.6	355.57	1030.5	914.54	186.93	890.87	313.18	257.01	862.52	931.1	289.79	862.5	938.6	395.23	850.21	1106.1	337.87	920.16	416.6	199.37	1082.5	643.97	534.92	943.86	1546.5	319.92	818.52	723.24	622.19	733.33	215.58	272.22	975.88	710.8	165.87	811.14	265.27	265.47	1326.2	42.607	386.99	1136.8	915.29	95.957	641.06	52.231	345.02	865.63	1317.9	452.45	626.91	184.08	335.19	535.47	210.36	293.72	1122.1	1597.7	323.85	788.95	290.46	201.74	594.44	192.83	248.55	1131.2	78.935	461.62	1162.6	868.92	48.939	674.26	23.905	331.33	628.31	52.541	261.48	829.74	1040.3	501.03	957.06	1227.5	87.016	1078.3	30.836	423.49
447	2.235	966.25	1540.7	456.95	946.65	1416.6	372.26	1055.6	932.09	486.44	1007.1	1355.3	519.11	926.46	1170.1	584.18	853.71	1055.8	595.33	852.36	911.33	623.17	1062.6	992.33	46.189	1122.6	558.6	513.1	1147.2	674.63	502.78	1195.3	373.81	411.21	1185	183.55	412.13	1275.8	37.002	369.53	1045.7	608.88	202.98	1254.1	31.381	459.49	1158.4	462.61	497.05	909.46	1090.5	139.6	1049.8	730.31	545.18	805.17	786.52	611.64	1187.2	278.13	484.87	936.61	1099	60.009	1193	280.96	413.35	1148.7	94.105	371.22	990.54	1416.8	195.82	968.44	523.93	184.44	975.08	612.88	172.67	1081.5	874.61	52.263	1081.6	1338.9	355.06	1036.3	914.83	187.02	903.34	312.33	257.4	868.25	931.55	289.69	868.85	939.1	395.06	856.64	1106.7	338.26	933.14	415.2	199.6	1087.6	643.71	534.46	950.74	1546.8	320.07	830.2	722.69	622.94	743.7	217.95	272.44	983.96	710.13	166.52	822.8	266.15	265.62	1326.7	41.199	386.25	1140.7	913.73	96.287	649.16	55.755	343.1	872.62	1318.5	453.39	636.69	189.22	334.47	546.01	216.58	291.94	1128.7	1598.5	324.99	801.52	291.07	201.43	604.93	197.83	247.53	1131.5	79.192	461.38	1165.9	866.95	49.21	681.06	26.68	328.03	636.67	57.418	260.4	838.87	1039.8	501.59	963.48	1228.3	87.504	1078.4	30.934	423.24
448	2.24	972.59	1540.4	456.88	953.31	1417.4	372.45	1061.8	933.09	486.72	1014.7	1355.7	518.82	935.73	1169.9	584.24	863.37	1055.2	595.88	863.13	910.9	623.82	1067.4	991.85	46.678	1126.9	557.75	511.26	1152.8	673.95	502.65	1197.3	373.04	409.81	1186	182.85	411.03	1276	36.647	369.1	1055.7	609.36	202.77	1254.2	31.516	459.12	1162.2	462.16	496.16	915.68	1092	140.62	1055.7	730.6	545.24	816.76	785.79	612.85	1189.7	277.52	483.69	942.25	1099.8	60.769	1194.9	280.24	411.96	1148.5	93.516	370.66	997.09	1417.7	195.96	980.07	523.04	184.51	985.09	612.6	172.83	1084.7	874.22	52.543	1088.2	1339.2	354.57	1042.1	915.06	187.09	915.69	312.2	258.24	874.25	932.07	289.85	875.29	939.47	395.35	862.9	1107.7	338.55	946.27	414.05	199.73	1092.5	643.82	533.93	957.52	1547.6	320.3	842.2	722.19	623.84	754.61	220.48	272.79	992.04	709.65	167.1	834	267.29	266.35	1327.5	40.141	385.62	1144.5	912.03	96.648	658.67	59.501	340.72	879.94	1319	454.17	646.99	193.79	333.66	557.02	222.48	290.7	1135.4	1599.4	326.05	814.46	291.67	201.41	615.77	202.59	246.64	1131.9	79.194	460.72	1168.8	864.88	49.544	689.87	30.2	325.52	645.43	62.164	258.48	847.89	1039.3	502.25	969.94	1229	87.802	1078.4	31.024	422.98
449	2.245	978.77	1540.2	456.97	960	1418	372.76	1068.2	934.14	486.86	1022.3	1356.1	518.61	945.12	1169.8	584.22	873.04	1054.7	596.48	873.86	910.41	624.75	1072.1	991.51	47.087	1131.1	557.38	509.61	1158.2	673.48	502.05	1199.1	372.34	408.52	1186.8	182.19	410	1276.2	36.484	368.89	1065.8	610.09	202.28	1254.2	31.54	458.71	1165.9	461.97	495.22	921.84	1093.6	141.57	1061.8	731.26	545.17	828.43	784.94	613.93	1192.1	276.93	482.49	948.03	1100.8	61.189	1196.4	279.67	410.65	1148.7	92.975	370.05	1003.4	1418.6	196.2	991.68	522.47	184.62	995.1	612.2	172.62	1087.6	873.53	52.383	1094.8	1339.8	354.09	1047.2	915.35	187.34	928.3	312.51	259.25	880.14	932.62	290.29	881.39	940.15	395.96	868.87	1108.5	338.89	959.6	413.34	199.78	1097.6	643.81	533.33	964.21	1548.3	320.5	854.51	721.65	624.7	765.71	223.17	273.09	999.96	709.12	167.58	845.76	268.91	267.06	1327.9	38.802	384.99	1148	910.47	96.873	668.62	62.878	338.62	886.87	1319.7	454.88	658.03	197.8	332.83	568.59	227.81	290.53	1142	1600.5	327.07	827.52	292.09	201.29	626.91	207.27	245.93	1132.4	79.165	460.02	1171.5	862.96	49.869	699.84	33.696	323.29	654.37	66.642	256.4	856.93	1038.9	503.06	976.38	1229.8	88.033	1078.4	31.078	422.75
450	2.25	985.07	1540.2	457.12	966.69	1418.7	372.75	1074.6	935.21	486.96	1030	1356.4	518.01	954.32	1169.7	584.3	882.91	1054.4	597.26	885.04	910	625.45	1077	991.19	47.252	1135.1	557.15	508.32	1163.4	673.25	501.12	1200.5	371.57	407.52	1187.7	181.65	409.07	1276.4	36.347	368.69	1075.9	611.42	201.94	1254.2	31.61	458.3	1169.5	461.96	494.3	927.77	1094.8	142.06	1068.1	731.96	544.88	840.32	784.41	614.92	1194.5	276.47	481.38	953.81	1101.7	61.657	1197.6	278.94	409.73	1148.8	92.444	369.38	1009.7	1419.5	196.24	1003.1	522.25	184.56	1004.8	611.86	172.74	1090.5	873.1	52.507	1101	1340.3	353.53	1052.6	915.8	187.25	940.97	313.19	260.21	886	933.27	290.99	887.32	940.94	396.83	874.85	1109.5	339.25	972.91	412.99	199.63	1102.5	644.17	532.79	971	1549.5	320.5	866.96	721.1	625.74	777.11	225.87	273.14	1008	708.79	168.16	858.07	270.7	267.31	1328.4	38.162	384.28	1151.3	908.94	97.232	678.83	66.162	336.44	894.03	1320.4	455.51	669.37	201.03	332.11	580.11	232.55	290.52	1148.6	1601.6	328.07	840.96	292.78	200.9	638.35	211.88	245.2	1132.8	79.197	459.5	1174.4	861.27	50.244	710.05	36.999	320.83	663.99	70.836	253.93	865.95	1038.2	503.79	982.76	1230.7	88.261	1078.3	31.152	422.54
451	2.255	991.64	1540.5	457.11	973.25	1419.5	372.85	1080.7	936.27	487.14	1037.6	1357	517.57	963.49	1169.8	584.4	892.77	1054.2	598.14	896.17	909.68	626.14	1081	990.68	47.817	1139.2	556.92	507.39	1168.4	673.19	500.14	1202.4	370.98	406.62	1188.6	181.22	408.26	1276.5	36.018	368.27	1085.8	613.16	201.69	1254.3	31.702	457.87	1172.8	461.89	493.42	933.5	1096.3	142.72	1074.1	732.78	544.5	852.57	783.7	615.82	1196.4	275.9	480.64	959.35	1102.6	62.202	1198.6	278.31	409.04	1149	92.272	368.89	1016.1	1420.5	196.07	1014.5	522.34	184.32	1014.5	611.84	172.63	1093.6	872.55	52.681	1107.4	1341	352.9	1058.3	916.41	186.94	953.45	314.26	260.74	891.67	933.94	291.48	893.53	942.09	397.32	880.68	1110.5	339.6	986.49	413.13	199.27	1107.6	644.84	532.33	977.64	1550.5	320.43	879.68	720.51	627.19	788.97	228.45	272.88	1016.1	708.94	168.44	870.43	272.61	267.43	1328.7	37.813	383.79	1154.7	907.54	97.54	689.67	69.207	333.88	901.09	1321.3	456.25	681.19	203.83	331.37	591.96	236.71	290.66	1155.2	1602.6	329.03	854.23	293.96	200.68	650.08	216.17	244.8	1133.1	79.348	459.5	1177.3	859.47	50.62	720.51	39.799	317.92	674.7	74.966	251.4	875.14	1037.9	504.75	988.99	1231.5	88.407	1078.3	31.19	422.43
452	2.26	997.97	1540.7	457.06	979.69	1420.3	372.91	1087	937.14	487.22	1045	1357.5	516.95	972.96	1170	584.33	902.83	1054.2	599.23	907.68	909.34	626.92	1085.1	990.23	48.103	1143.7	558.35	509.09	1173.7	673.4	499.14	1204.3	370.48	405.97	1189.4	180.84	407.81	1276.6	35.703	367.84	1095.4	614.95	201.6	1254.2	31.837	457.53	1175.9	461.73	492.74	939.01	1097.7	143.24	1079.7	733.64	543.86	865.04	783.04	616.87	1198.3	275.5	479.97	964.83	1103.4	62.691	1200.1	277.78	408.37	1149.1	92.122	368.53	1022.1	1421.3	195.77	1025.8	523.1	184.02	1024.2	612.65	172.39	1096.4	872.03	52.612	1113.6	1341.9	352.22	1064	917.3	186.7	966.28	315.52	260.99	897.37	934.92	291.98	899.78	943.53	397.66	886.59	1111.7	339.92	1000.2	413.7	198.9	1112.7	645.21	531.89	984.51	1551.6	320.41	892.74	720.36	628.17	801.37	230.96	272.44	1024.2	709.76	168.43	883.1	274.41	267.35	1329.1	37.613	383.6	1157.8	905.95	97.908	701.43	71.815	331.17	908.03	1322.4	456.89	693.58	206.36	330.65	604.47	240.56	290.77	1161.9	1603.6	329.87	867.67	295.85	200.25	662.14	220.23	244.48	1133.4	79.26	459.16	1180.1	857.72	50.913	731.88	42.823	314.34	686.22	78.993	248.97	884.28	1037.3	505.4	995.06	1232.3	88.479	1078.2	31.156	422.56
453	2.265	1004.1	1541	456.99	986.06	1421.6	372.64	1093.3	938	487.19	1052.3	1358.3	516.33	982.27	1170.2	584.26	912.97	1054.1	600.03	919.29	909.28	627.72	1089.3	989.82	48.196	1148.3	559.62	510.36	1178.4	673.44	498.25	1206.3	370.08	405.47	1190.1	180.52	407.59	1276.7	35.33	367.25	1105.1	616.94	201.46	1254.1	32.029	457.3	1178.9	461.62	492.23	944.08	1098.9	143.43	1085.2	734.39	543.22	877.62	782.5	618.21	1199.7	275.13	479.67	969.99	1104.3	63.083	1201.5	277.47	407.96	1149.1	92.02	368.28	1028.2	1422.2	195.41	1036.8	524.02	183.56	1033.9	613.5	172.05	1099.2	871.6	52.663	1119.7	1342.8	351.51	1069.3	918.17	186.36	979.46	317.05	260.7	903.19	936.05	292.46	905.2	944.92	397.43	892.53	1113	340.34	1013.7	414.68	198.46	1117.6	645.72	531.32	991.26	1552.8	320.48	905.98	720.33	629.04	814.26	233.31	271.75	1032.1	710.83	168.11	896.11	276.29	266.92	1329.1	37.388	383.87	1160.8	904.64	98.055	713.71	73.999	328.48	914.58	1323.5	457.43	706.17	208.87	330.08	617.11	243.87	290.89	1168.6	1604.7	330.64	880.55	297.92	199.85	674.46	223.97	244.07	1133.6	79.473	458.77	1182.5	856.06	51.243	743.93	45.297	310.88	698.53	82.854	246.46	893.46	1037.2	506.19	1001.2	1233.1	88.415	1078.3	31.232	422.41
